<?xml version="1.0" encoding="UTF-8"?>
<svg enable-background="new 0 0 313 97" version="1.1" viewBox="0 0 313 97" xml:space="preserve" xmlns="http://www.w3.org/2000/svg">
<style type="text/css">
	.st0{enable-background:new    ;}
	.st1{display:none;enable-background:new    ;}
	.st2{font-family:'LeagueSpartan-Bold';}
	.st3{font-size:88.1457px;}
	.st4{display:none;}
	.st5{display:inline;}
	.st6{font-family:'PTSans-Regular';}
	.st7{font-size:16.9428px;}
</style>
<g class="st0">
	<path d="M10.6,18.2V3.6h51.1v14.5H44.4v58.2H27.8V18.2H10.6z"/>
	<path d="m69.2 5.9c1.8-1.8 4-2.7 6.5-2.7s4.7 0.9 6.5 2.7 2.7 4 2.7 6.5-0.9 4.7-2.7 6.5-4 2.7-6.5 2.7-4.7-0.9-6.5-2.7-2.7-4-2.7-6.5 0.9-4.7 2.7-6.5zm-1.5 25.2v45.2h15.6v-45.2h-15.6z"/>
	<path d="m94.3 76.3v-45.2h15.6v6.5h0.2c0.1-0.2 0.3-0.5 0.6-0.9s0.8-1 1.7-1.9 1.8-1.7 2.8-2.4 2.3-1.3 3.9-1.9 3.2-0.8 4.8-0.8c1.7 0 3.4 0.2 5 0.7s2.8 0.9 3.6 1.4l1.2 0.7-6.5 13.2c-1.9-1.6-4.6-2.5-8.1-2.5-1.9 0-3.5 0.4-4.8 1.2-1.4 0.8-2.3 1.8-2.9 3s-1 2.2-1.2 3-0.4 1.5-0.4 1.9v23.8h-15.5z"/>
	<path d="m139.7 5.9c1.8-1.8 4-2.7 6.5-2.7s4.7 0.9 6.5 2.7 2.7 4 2.7 6.5-0.9 4.7-2.7 6.5-4 2.7-6.5 2.7-4.7-0.9-6.5-2.7-2.7-4-2.7-6.5 0.9-4.7 2.7-6.5zm-1.5 25.2v45.2h15.6v-45.2h-15.6z"/>
	<path d="m167.5 31.1v-16.8h15.6v16.8h9.5v11.9h-9.5v14.4c0 4.2 1.2 6.3 3.5 6.3 0.6 0 1.2-0.1 1.9-0.4 0.6-0.2 1.1-0.5 1.5-0.7l0.5-0.4 3.9 12.6c-3.3 1.9-7.2 2.8-11.5 2.8-2.9 0-5.5-0.5-7.6-1.5s-3.7-2.4-4.8-4.1-1.9-3.6-2.3-5.5c-0.5-1.9-0.7-4-0.7-6.1v-17.4h-6.5v-11.9h6.5z"/>
	<path d="m201.1 5.9c1.8-1.8 4-2.7 6.5-2.7s4.7 0.9 6.5 2.7 2.7 4 2.7 6.5-0.9 4.7-2.7 6.5-4 2.7-6.5 2.7-4.7-0.9-6.5-2.7-2.7-4-2.7-6.5 0.9-4.7 2.7-6.5zm-1.5 25.2v45.2h15.6v-45.2h-15.6z"/>
	<path d="M226.3,76.3V0.5h15.6v75.8H226.3z"/>
	<path d="M252.4,76.3V0.5H268v75.8H252.4z"/>
	<path d="m280.1 5.9c1.8-1.8 4-2.7 6.5-2.7s4.7 0.9 6.5 2.7 2.7 4 2.7 6.5-0.9 4.7-2.7 6.5-4 2.7-6.5 2.7-4.7-0.9-6.5-2.7-2.7-4-2.7-6.5 0.9-4.7 2.7-6.5zm-1.5 25.2v45.2h15.6v-45.2h-15.6z"/>
</g>
	<g class="st0">
		<path d="m5.9 92l0.3 2.3 0.3-2.3 2.8-9.2h0.8l2.9 9.2 0.3 2.3 0.4-2.3 2.3-9.2h1.6l-3.8 14h-0.9l-2.8-9.2-0.4-2.1-0.4 2.1-2.8 9.2h-0.9l-3.9-14h1.7l2.5 9.2z"/>
	</g>
	<g class="st0">
		<path d="M31.9,82.8h7.5v1.5h-5.8v4.5h5.4v1.5h-5.4v4.9h5.9v1.5h-7.6V82.8z"/>
	</g>
	<g class="st0">
		<path d="m60.4 85.9c0 0.3-0.1 0.7-0.2 1s-0.3 0.7-0.5 1-0.5 0.6-0.8 0.8-0.7 0.4-1.2 0.5v0.1c0.4 0.1 0.8 0.2 1.1 0.3 0.4 0.2 0.7 0.4 1 0.6 0.3 0.3 0.5 0.6 0.7 1s0.3 0.9 0.3 1.4c0 0.7-0.1 1.3-0.4 1.8s-0.7 0.9-1.2 1.3c-0.5 0.3-1 0.6-1.6 0.7-0.6 0.2-1.2 0.2-1.9 0.2h-0.8-0.9c-0.3 0-0.7 0-1-0.1-0.3 0-0.6-0.1-0.9-0.1v-13.5c0.5-0.1 1-0.1 1.7-0.2 0.6-0.1 1.3-0.1 2.1-0.1 0.5 0 1 0 1.6 0.1 0.5 0.1 1 0.2 1.4 0.5 0.4 0.2 0.8 0.6 1.1 1 0.3 0.5 0.4 1 0.4 1.7zm-5.6 2.9h0.8c0.3 0 0.6 0 0.8-0.1 0.3-0.1 0.6-0.2 0.9-0.4s0.5-0.3 0.7-0.5 0.4-0.4 0.5-0.7 0.2-0.6 0.2-0.9c0-0.4-0.1-0.8-0.2-1.1-0.2-0.3-0.4-0.5-0.7-0.7s-0.6-0.3-0.9-0.4c-0.4-0.1-0.7-0.1-1.1-0.1h-1.2c-0.4 0-0.6 0-0.8 0.1v4.7h1zm1.1 6.5c0.4 0 0.8 0 1.2-0.1s0.7-0.3 1-0.5 0.5-0.5 0.7-0.8 0.3-0.7 0.3-1.1c0-0.5-0.1-1-0.3-1.3s-0.5-0.6-0.8-0.8-0.7-0.3-1.2-0.4c-0.4-0.1-0.9-0.1-1.3-0.1h-1.7v4.9c0.1 0 0.2 0 0.4 0.1h0.5 0.6c0.2 0.1 0.4 0.1 0.6 0.1z"/>
	</g>
	<g class="st0">
		<path d="m91.6 82.8c0.2 0 0.5-0.1 0.8-0.1h1 1 0.9c1.1 0 2.1 0.2 2.9 0.5s1.5 0.8 2 1.4 0.9 1.3 1.2 2.2 0.4 1.8 0.4 2.8c0 0.9-0.1 1.8-0.4 2.7-0.2 0.9-0.6 1.6-1.1 2.3s-1.2 1.2-2 1.6-1.9 0.6-3 0.6h-0.8-1-1c-0.3 0-0.5 0-0.6-0.1v-13.9zm3.7 1.3h-0.6-0.6-0.5-0.4v11h0.4 0.6 0.6 0.4c0.9 0 1.7-0.2 2.3-0.5s1.1-0.7 1.5-1.3c0.4-0.5 0.6-1.1 0.8-1.8s0.2-1.4 0.2-2.1c0-0.6-0.1-1.3-0.2-1.9s-0.4-1.2-0.7-1.8c-0.4-0.5-0.8-1-1.4-1.3-0.8-0.2-1.5-0.3-2.4-0.3z"/>
	</g>
	<g class="st0">
		<path d="M114.5,82.8h7.5v1.5h-5.8v4.5h5.4v1.5h-5.4v4.9h5.9v1.5h-7.6V82.8z"/>
	</g>
	<g class="st0">
		<path d="m138.7 92.2l0.5 2.1 0.5-2.1 3.3-9.4h1.6l-5.2 14h-0.7l-5.3-14h1.8l3.5 9.4z"/>
	</g>
	<g class="st0">
		<path d="M155.8,82.8h7.5v1.5h-5.8v4.5h5.4v1.5h-5.4v4.9h5.9v1.5h-7.6V82.8z"/>
	</g>
	<g class="st0">
		<path d="m185.2 96.5h-8.1v-13.7h1.6v12.3h6.5v1.4z"/>
	</g>
	<g class="st0">
		<path d="m192.2 89.7c0-2.3 0.5-4 1.5-5.3 1-1.2 2.3-1.8 4.1-1.8 1 0 1.8 0.2 2.5 0.5s1.3 0.8 1.8 1.4 0.8 1.4 1 2.2c0.2 0.9 0.3 1.8 0.3 2.9 0 2.3-0.5 4-1.5 5.3-1 1.2-2.4 1.8-4.2 1.8-1 0-1.8-0.2-2.5-0.5s-1.3-0.8-1.7-1.4c-0.5-0.6-0.8-1.4-1-2.2-0.2-0.9-0.3-1.9-0.3-2.9zm1.7 0c0 0.8 0.1 1.5 0.2 2.2s0.4 1.3 0.7 1.8 0.7 0.9 1.2 1.2 1.1 0.5 1.7 0.5c1.2 0 2.2-0.5 2.9-1.4s1-2.3 1-4.3c0-0.7-0.1-1.5-0.2-2.1s-0.4-1.3-0.7-1.8-0.7-0.9-1.2-1.2-1.1-0.5-1.8-0.5c-1.2 0-2.1 0.5-2.8 1.4-0.6 0.8-1 2.2-1 4.2z"/>
	</g>
	<g class="st0">
		<path d="m217.2 82.9c0.5-0.1 1-0.2 1.6-0.2s1.1-0.1 1.7-0.1 1.2 0.1 1.8 0.2 1.2 0.3 1.7 0.6 0.9 0.7 1.2 1.3c0.3 0.5 0.5 1.2 0.5 2.1 0 0.8-0.2 1.5-0.5 2.1s-0.7 1-1.2 1.4-1.1 0.6-1.7 0.8-1.3 0.2-2 0.2h-0.3s-0.3 0-0.5 0h-0.5-0.3v5.2h-1.6v-13.6zm3.4 1.1h-1c-0.3 0-0.6 0-0.7 0.1v5.7h0.3 0.5 0.5 0.3c0.4 0 0.9 0 1.3-0.1s0.8-0.2 1.2-0.5c0.4-0.2 0.6-0.5 0.9-0.9 0.2-0.4 0.3-0.9 0.3-1.5 0-0.5-0.1-1-0.3-1.3-0.2-0.4-0.5-0.6-0.8-0.9-0.3-0.2-0.7-0.4-1.1-0.5-0.6 0-1-0.1-1.4-0.1z"/>
	</g>
	<g class="st0">
		<path d="m245.5 87.3l0.2-2.1h-0.1l-0.7 1.9-3.6 6.2h-0.5l-3.8-6.2-0.7-1.9h-0.1l0.3 2v9.2h-1.5v-13.6h1.2l4.3 7 0.6 1.5 0.6-1.6 4.1-7h1.3v13.7h-1.6v-9.1z"/>
	</g>
	<g class="st0">
		<path d="M261.3,82.8h7.5v1.5h-5.8v4.5h5.4v1.5h-5.4v4.9h5.9v1.5h-7.6V82.8z"/>
	</g>
	<g class="st0">
		<path d="m283.1 87.5l-1.1-2 0.2 2v9h-1.5v-14h0.9l6.6 9.2 1 1.9h0.1l-0.2-1.9v-8.9h1.5v14h-0.9l-6.6-9.3z"/>
	</g>
	<g class="st0">
		<path d="m312.5 84.2h-4.3v12.3h-1.6v-12.3h-4.3v-1.5h10.2v1.5z"/>
	</g>
<text class="st1 st2 st3" transform="translate(9.8612 76.33)">Tiritilli</text>
<g class="st4">
	<text class="st5 st6 st7" transform="translate(25.472 95.851)">W</text>
	<text class="st5 st6 st7" transform="translate(50.48 95.851)">E</text>
	<text class="st5 st6 st7" transform="translate(67.916 95.851)">B</text>
	<text class="st5 st6 st7" transform="translate(101.97 95.851)">D</text>
	<text class="st5 st6 st7" transform="translate(121.75 95.851)">E</text>
	<text class="st5 st6 st7" transform="translate(139.32 95.851)">V</text>
	<text class="st5 st6 st7" transform="translate(157.43 95.851)">E</text>
	<text class="st5 st6 st7" transform="translate(175.44 95.851)">L</text>
	<text class="st5 st6 st7" transform="translate(189.36 95.851)">O</text>
	<text class="st5 st6 st7" transform="translate(210.14 95.851)">P</text>
	<text class="st5 st6 st7" transform="translate(225.71 95.851)">M</text>
	<text class="st5 st6 st7" transform="translate(248.53 95.851)">E</text>
	<text class="st5 st6 st7" transform="translate(265.21 95.851)">N</text>
	<text class="st5 st6 st7" transform="translate(284.68 95.851)">T</text>
</g>
</svg>
