<?xml version="1.0" encoding="UTF-8" standalone="no"?>
<svg
   xmlns:dc="http://purl.org/dc/elements/1.1/"
   xmlns:cc="http://creativecommons.org/ns#"
   xmlns:rdf="http://www.w3.org/1999/02/22-rdf-syntax-ns#"
   xmlns:svg="http://www.w3.org/2000/svg"
   xmlns="http://www.w3.org/2000/svg"
   xmlns:sodipodi="http://sodipodi.sourceforge.net/DTD/sodipodi-0.dtd"
   xmlns:inkscape="http://www.inkscape.org/namespaces/inkscape"
   enable-background="new 0 0 313 97"
   version="1.1"
   viewBox="0 0 313 97"
   xml:space="preserve"
   id="svg1043"
   sodipodi:docname="logo-small.svg"
   inkscape:version="0.92.2 (5c3e80d, 2017-08-06)"><metadata
     id="metadata1049"><rdf:RDF><cc:Work
         rdf:about=""><dc:format>image/svg+xml</dc:format><dc:type
           rdf:resource="http://purl.org/dc/dcmitype/StillImage" /><dc:title></dc:title></cc:Work></rdf:RDF></metadata><defs
     id="defs1047" /><sodipodi:namedview
     pagecolor="#ffffff"
     bordercolor="#666666"
     borderopacity="1"
     objecttolerance="10"
     gridtolerance="10"
     guidetolerance="10"
     inkscape:pageopacity="0"
     inkscape:pageshadow="2"
     inkscape:window-width="1680"
     inkscape:window-height="1027"
     id="namedview1045"
     showgrid="false"
     inkscape:zoom="2.7109525"
     inkscape:cx="119.51119"
     inkscape:cy="47.243913"
     inkscape:window-x="-8"
     inkscape:window-y="18"
     inkscape:window-maximized="1"
     inkscape:current-layer="svg1043"><inkscape:grid
       type="xygrid"
       id="grid1084" /></sodipodi:namedview><style
     type="text/css"
     id="style933">
	.st0{enable-background:new    ;}
	.st1{display:none;enable-background:new    ;}
	.st2{font-family:'LeagueSpartan-Bold';}
	.st3{font-size:88.1457px;}
	.st4{display:none;}
	.st5{display:inline;}
	.st6{font-family:'PTSans-Regular';}
	.st7{font-size:16.9428px;}
</style><g
     class="st0"
     id="g953"
     transform="matrix(0.99686065,0,0,0.99686065,0.86033145,-0.71175756)"
     style="enable-background:new"><g
       id="g1060"
       transform="matrix(0.89450356,0,0,0.89450356,19.695218,3.3265083)"><g
         id="g1071"
         transform="matrix(1.0401553,0,0,1.0401553,-6.1517866,-1.5680631)"><g
           id="g1082"><g
             id="g1095"
             transform="matrix(1.0120097,0,0,1.0120097,-2.0398175,-0.71840766)"><path
               inkscape:connector-curvature="0"
               d="M 10.6,18.2 V 3.6 H 61.7 V 18.1 H 44.4 V 76.3 H 27.8 V 18.2 Z"
               id="path935" /><path
               inkscape:connector-curvature="0"
               d="m 69.2,5.9 c 1.8,-1.8 4,-2.7 6.5,-2.7 2.5,0 4.7,0.9 6.5,2.7 1.8,1.8 2.7,4 2.7,6.5 0,2.5 -0.9,4.7 -2.7,6.5 -1.8,1.8 -4,2.7 -6.5,2.7 -2.5,0 -4.7,-0.9 -6.5,-2.7 -1.8,-1.8 -2.7,-4 -2.7,-6.5 0,-2.5 0.9,-4.7 2.7,-6.5 z M 67.7,31.1 V 76.3 H 83.3 V 31.1 Z"
               id="path937" /><path
               inkscape:connector-curvature="0"
               d="M 94.3,76.3 V 31.1 h 15.6 v 6.5 h 0.2 c 0.1,-0.2 0.3,-0.5 0.6,-0.9 0.3,-0.4 0.8,-1 1.7,-1.9 0.9,-0.9 1.8,-1.7 2.8,-2.4 1,-0.7 2.3,-1.3 3.9,-1.9 1.6,-0.6 3.2,-0.8 4.8,-0.8 1.7,0 3.4,0.2 5,0.7 1.6,0.5 2.8,0.9 3.6,1.4 l 1.2,0.7 -6.5,13.2 c -1.9,-1.6 -4.6,-2.5 -8.1,-2.5 -1.9,0 -3.5,0.4 -4.8,1.2 -1.4,0.8 -2.3,1.8 -2.9,3 -0.6,1.2 -1,2.2 -1.2,3 -0.2,0.8 -0.4,1.5 -0.4,1.9 V 76.1 H 94.3 Z"
               id="path939" /><path
               inkscape:connector-curvature="0"
               d="m 139.7,5.9 c 1.8,-1.8 4,-2.7 6.5,-2.7 2.5,0 4.7,0.9 6.5,2.7 1.8,1.8 2.7,4 2.7,6.5 0,2.5 -0.9,4.7 -2.7,6.5 -1.8,1.8 -4,2.7 -6.5,2.7 -2.5,0 -4.7,-0.9 -6.5,-2.7 -1.8,-1.8 -2.7,-4 -2.7,-6.5 0,-2.5 0.9,-4.7 2.7,-6.5 z m -1.5,25.2 v 45.2 h 15.6 V 31.1 Z"
               id="path941" /><path
               inkscape:connector-curvature="0"
               d="M 167.5,31.1 V 14.3 h 15.6 v 16.8 h 9.5 V 43 h -9.5 v 14.4 c 0,4.2 1.2,6.3 3.5,6.3 0.6,0 1.2,-0.1 1.9,-0.4 0.6,-0.2 1.1,-0.5 1.5,-0.7 l 0.5,-0.4 3.9,12.6 c -3.3,1.9 -7.2,2.8 -11.5,2.8 -2.9,0 -5.5,-0.5 -7.6,-1.5 -2.1,-1 -3.7,-2.4 -4.8,-4.1 -1.1,-1.7 -1.9,-3.6 -2.3,-5.5 -0.5,-1.9 -0.7,-4 -0.7,-6.1 V 43 H 161 V 31.1 Z"
               id="path943" /><path
               inkscape:connector-curvature="0"
               d="m 201.1,5.9 c 1.8,-1.8 4,-2.7 6.5,-2.7 2.5,0 4.7,0.9 6.5,2.7 1.8,1.8 2.7,4 2.7,6.5 0,2.5 -0.9,4.7 -2.7,6.5 -1.8,1.8 -4,2.7 -6.5,2.7 -2.5,0 -4.7,-0.9 -6.5,-2.7 -1.8,-1.8 -2.7,-4 -2.7,-6.5 0,-2.5 0.9,-4.7 2.7,-6.5 z m -1.5,25.2 v 45.2 h 15.6 V 31.1 Z"
               id="path945" /><path
               inkscape:connector-curvature="0"
               d="M 226.3,76.3 V 0.5 h 15.6 v 75.8 z"
               id="path947" /><path
               inkscape:connector-curvature="0"
               d="M 252.4,76.3 V 0.5 H 268 v 75.8 z"
               id="path949" /><path
               inkscape:connector-curvature="0"
               d="m 280.1,5.9 c 1.8,-1.8 4,-2.7 6.5,-2.7 2.5,0 4.7,0.9 6.5,2.7 1.8,1.8 2.7,4 2.7,6.5 0,2.5 -0.9,4.7 -2.7,6.5 -1.8,1.8 -4,2.7 -6.5,2.7 -2.5,0 -4.7,-0.9 -6.5,-2.7 -1.8,-1.8 -2.7,-4 -2.7,-6.5 0,-2.5 0.9,-4.7 2.7,-6.5 z m -1.5,25.2 v 45.2 h 15.6 V 31.1 Z"
               id="path951" /></g></g></g></g></g><text
     class="st1 st2 st3"
     transform="translate(9.8612 76.33)"
     id="text1011">Tiritilli</text>
<g
     class="st4"
     id="g1041"><text
       class="st5 st6 st7"
       transform="translate(25.472 95.851)"
       id="text1013">W</text>
<text
       class="st5 st6 st7"
       transform="translate(50.48 95.851)"
       id="text1015">E</text>
<text
       class="st5 st6 st7"
       transform="translate(67.916 95.851)"
       id="text1017">B</text>
<text
       class="st5 st6 st7"
       transform="translate(101.97 95.851)"
       id="text1019">D</text>
<text
       class="st5 st6 st7"
       transform="translate(121.75 95.851)"
       id="text1021">E</text>
<text
       class="st5 st6 st7"
       transform="translate(139.32 95.851)"
       id="text1023">V</text>
<text
       class="st5 st6 st7"
       transform="translate(157.43 95.851)"
       id="text1025">E</text>
<text
       class="st5 st6 st7"
       transform="translate(175.44 95.851)"
       id="text1027">L</text>
<text
       class="st5 st6 st7"
       transform="translate(189.36 95.851)"
       id="text1029">O</text>
<text
       class="st5 st6 st7"
       transform="translate(210.14 95.851)"
       id="text1031">P</text>
<text
       class="st5 st6 st7"
       transform="translate(225.71 95.851)"
       id="text1033">M</text>
<text
       class="st5 st6 st7"
       transform="translate(248.53 95.851)"
       id="text1035">E</text>
<text
       class="st5 st6 st7"
       transform="translate(265.21 95.851)"
       id="text1037">N</text>
<text
       class="st5 st6 st7"
       transform="translate(284.68 95.851)"
       id="text1039">T</text>
</g><g
     aria-label="Web Development"
     style="font-style:normal;font-variant:normal;font-weight:normal;font-stretch:normal;font-size:26.66666603px;line-height:1.25;font-family:'Gill Sans Ultra Bold Condensed';-inkscape-font-specification:'Gill Sans Ultra Bold Condensed, ';letter-spacing:3.26999998px;word-spacing:0px;fill:#000000;fill-opacity:1;stroke:none"
     id="text1099"
     transform="translate(-1.4754961,1.1066221)"><g
       id="g1152"
       transform="matrix(1.008405,0,0,1.008405,-1.3236392,-0.71471954)"><path
         id="path1109"
         style="font-style:normal;font-variant:normal;font-weight:normal;font-stretch:normal;font-size:26.66666603px;font-family:'OperatorMono Nerd Font';-inkscape-font-specification:'OperatorMono Nerd Font';letter-spacing:3.26999998px"
         d="m 32.646698,92.115135 h 2.933333 c 1.04,-3.12 2.826667,-9.413333 4.56,-16.533333 h -2.88 c -0.4,1.733334 -2.693333,11.68 -2.96,12.533333 h -0.106666 l -0.4,-7.573333 h -1.653334 l -3.359999,7.573333 h -0.106667 c 0.05333,-0.853333 1.6,-10.799999 1.866666,-12.533333 h -2.933333 c -1.04,7.066667 -1.68,13.386667 -1.786666,16.533333 h 2.853333 l 3.52,-7.893333 z"
         inkscape:connector-curvature="0" /><path
         id="path1111"
         style="font-style:normal;font-variant:normal;font-weight:normal;font-stretch:normal;font-size:26.66666603px;font-family:'OperatorMono Nerd Font';-inkscape-font-specification:'OperatorMono Nerd Font';letter-spacing:3.26999998px"
         d="m 55.110865,90.568469 -0.32,-1.466667 c -6.16,1.573333 -8.24,1.013333 -8.32,-1.92 6.053333,-0.426667 9.306667,-2.32 9.306667,-5.386667 0,-2.053333 -1.466667,-3.333333 -3.893333,-3.333333 -4.586667,0 -8.16,4.666667 -8.16,8.906667 0,4.373333 3.866666,7.013333 11.386666,3.2 z m -3.973333,-9.76 c 1.2,0 1.946666,0.666666 1.946666,1.6 0,1.866666 -2.479999,2.88 -6.479999,3.2 0.48,-2.453334 2.186666,-4.8 4.533333,-4.8 z"
         inkscape:connector-curvature="0" /><path
         id="path1113"
         style="font-style:normal;font-variant:normal;font-weight:normal;font-stretch:normal;font-size:26.66666603px;font-family:'OperatorMono Nerd Font';-inkscape-font-specification:'OperatorMono Nerd Font';letter-spacing:3.26999998px"
         d="m 65.601699,92.435135 c 5.04,0 8.24,-4.693333 8.24,-9.493333 0,-2.986667 -1.253333,-4.48 -2.933333,-4.48 -1.413334,0 -3.12,1.093333 -4.613334,2.506667 l 1.493334,-7.653333 -2.853334,0.213333 -3.52,18.16 c 1.253334,0.4 2.88,0.746666 4.186667,0.746666 z m 1.44,-2.426666 c -0.586667,0 -1.466667,-0.133334 -2.4,-0.426667 l 1.253333,-6.48 c 1.146667,-1.093333 2.533334,-2 3.52,-2 0.853334,0 1.6,0.773333 1.6,2.56 0,3.066667 -1.84,6.346667 -3.973333,6.346667 z"
         inkscape:connector-curvature="0" /><path
         id="path1115"
         style="font-style:normal;font-variant:normal;font-weight:normal;font-stretch:normal;font-size:26.66666603px;font-family:'OperatorMono Nerd Font';-inkscape-font-specification:'OperatorMono Nerd Font';letter-spacing:3.26999998px"
         d="m 110.26337,81.795135 c 0,-5.093333 -3.30667,-7.226666 -10,-6.133333 l -3.173337,16.426667 c 9.413337,1.226666 13.173337,-4.24 13.173337,-10.293334 z m -2.96,0.293334 c 0,4.24 -2.26667,8 -6.82667,7.706666 l 2.29333,-11.919999 c 3.06667,-0.293334 4.53334,1.146666 4.53334,4.213333 z"
         inkscape:connector-curvature="0" /><path
         id="path1117"
         style="font-style:normal;font-variant:normal;font-weight:normal;font-stretch:normal;font-size:26.66666603px;font-family:'OperatorMono Nerd Font';-inkscape-font-specification:'OperatorMono Nerd Font';letter-spacing:3.26999998px"
         d="m 126.94086,90.568469 -0.32,-1.466667 c -6.16,1.573333 -8.24,1.013333 -8.32,-1.92 6.05334,-0.426667 9.30667,-2.32 9.30667,-5.386667 0,-2.053333 -1.46667,-3.333333 -3.89333,-3.333333 -4.58667,0 -8.16,4.666667 -8.16,8.906667 0,4.373333 3.86666,7.013333 11.38666,3.2 z m -3.97333,-9.76 c 1.2,0 1.94667,0.666666 1.94667,1.6 0,1.866666 -2.48,2.88 -6.48,3.2 0.48,-2.453334 2.18666,-4.8 4.53333,-4.8 z"
         inkscape:connector-curvature="0" /><path
         id="path1119"
         style="font-style:normal;font-variant:normal;font-weight:normal;font-stretch:normal;font-size:26.66666603px;font-family:'OperatorMono Nerd Font';-inkscape-font-specification:'OperatorMono Nerd Font';letter-spacing:3.26999998px"
         d="m 138.8717,89.208469 h -0.21333 c -0.56,-3.493334 -1.06667,-7.04 -1.44,-10.48 l -2.85334,0.213333 c 0.50667,4.373333 1.22667,8.88 2.02667,13.28 h 3.49333 c 2.48,-4.293333 5.06667,-9.093333 7.25334,-13.386666 h -2.93334 c -1.70666,3.413333 -3.44,6.906666 -5.33333,10.373333 z"
         inkscape:connector-curvature="0" /><path
         id="path1121"
         style="font-style:normal;font-variant:normal;font-weight:normal;font-stretch:normal;font-size:26.66666603px;font-family:'OperatorMono Nerd Font';-inkscape-font-specification:'OperatorMono Nerd Font';letter-spacing:3.26999998px"
         d="m 162.85586,90.568469 -0.32,-1.466667 c -6.16,1.573333 -8.24,1.013333 -8.32,-1.92 6.05334,-0.426667 9.30667,-2.32 9.30667,-5.386667 0,-2.053333 -1.46667,-3.333333 -3.89333,-3.333333 -4.58667,0 -8.16,4.666667 -8.16,8.906667 0,4.373333 3.86666,7.013333 11.38666,3.2 z m -3.97333,-9.76 c 1.2,0 1.94667,0.666666 1.94667,1.6 0,1.866666 -2.48,2.88 -6.48,3.2 0.48,-2.453334 2.18666,-4.8 4.53333,-4.8 z"
         inkscape:connector-curvature="0" /><path
         id="path1123"
         style="font-style:normal;font-variant:normal;font-weight:normal;font-stretch:normal;font-size:26.66666603px;font-family:'OperatorMono Nerd Font';-inkscape-font-specification:'OperatorMono Nerd Font';letter-spacing:3.26999998px"
         d="m 180.68003,90.435135 -0.45333,-1.44 c -3.78666,1.6 -5.76,1.466667 -6.16,-1.306666 5.57333,-4.08 8.29333,-8.133334 8.29333,-11.44 0,-1.92 -1.04,-2.986667 -2.72,-2.986667 -3.99999,0 -8.53333,6.4 -8.53333,13.706667 0,0.24 0,0.48 0.0267,0.72 -0.69333,0.453333 -1.65333,1.066666 -1.76,1.146666 l 0.69333,1.173334 c 0.08,-0.05333 0.69334,-0.426667 1.28,-0.773334 0.90667,3.706667 4.29334,4.133333 9.33333,1.2 z m -2.07999,-14.373333 c 0.64,0 1.11999,0.453334 1.11999,1.413334 0,1.973333 -1.67999,4.959999 -5.73333,8.373333 0.18667,-5.52 2.72,-9.786667 4.61334,-9.786667 z"
         inkscape:connector-curvature="0" /><path
         id="path1125"
         style="font-style:normal;font-variant:normal;font-weight:normal;font-stretch:normal;font-size:26.66666603px;font-family:'OperatorMono Nerd Font';-inkscape-font-specification:'OperatorMono Nerd Font';letter-spacing:3.26999998px"
         d="m 187.19752,86.995135 c 0,3.466667 1.94667,5.466667 5.04,5.466667 4.13334,0 7.2,-3.893333 7.2,-8.533333 0,-3.44 -1.97333,-5.466667 -5.04,-5.466667 -4.13333,0 -7.2,3.946667 -7.2,8.533333 z m 9.36,-2.693333 c 0,3.013333 -1.6,5.786667 -3.92,5.786667 -1.6,0 -2.56,-1.253334 -2.56,-3.466667 0,-2.986667 1.6,-5.786667 3.92,-5.786667 1.6,0 2.56,1.253334 2.56,3.466667 z"
         inkscape:connector-curvature="0" /><path
         id="path1127"
         style="font-style:normal;font-variant:normal;font-weight:normal;font-stretch:normal;font-size:26.66666603px;font-family:'OperatorMono Nerd Font';-inkscape-font-specification:'OperatorMono Nerd Font';letter-spacing:3.26999998px"
         d="m 210.67503,90.061802 c -0.56,0 -1.44,-0.133333 -2.4,-0.453333 0.53333,-2.72 1.04,-5.386667 1.22667,-6.453334 1.14666,-1.12 2.58666,-1.973333 3.54666,-1.973333 0.88,0 1.57333,0.773333 1.57333,2.533333 0,3.013334 -1.81333,6.346667 -3.94666,6.346667 z m -3.76,6.533333 c 0.10667,-0.586667 0.45333,-2.266667 0.82667,-4.266666 0.56,0.08 1.06666,0.106666 1.54666,0.106666 4.98667,0 8.18667,-4.72 8.18667,-9.52 0,-2.96 -1.30667,-4.399999 -2.93334,-4.399999 -1.43999,0 -3.25333,1.199999 -4.77333,2.666666 0.16,-1.013333 0.34667,-2.24 0.37334,-2.426666 l -2.77334,0.16 c -0.58666,4.159999 -1.6,9.199999 -3.25333,17.893332 z"
         inkscape:connector-curvature="0" /><path
         id="path1129"
         style="font-style:normal;font-variant:normal;font-weight:normal;font-stretch:normal;font-size:26.66666603px;font-family:'OperatorMono Nerd Font';-inkscape-font-specification:'OperatorMono Nerd Font';letter-spacing:3.26999998px"
         d="m 235.83253,91.581802 -0.26666,-1.466667 c -0.82667,0.24 -1.06667,0.16 -1.06667,-0.213333 0,-1.333333 1.89333,-7.146667 1.89333,-9.52 0,-1.226666 -0.53333,-1.84 -1.57333,-1.84 -1.01333,0 -2.21333,0.666667 -3.46667,2 0.0267,-1.36 -0.48,-2 -1.44,-2 -0.88,0 -1.92,0.586667 -2.98666,1.76 0.08,-0.613333 0.16,-1.36 0.18666,-1.52 l -2.56,0.16 c -0.64,3.893333 -1.22666,6.88 -2.45333,13.173333 h 2.69333 c 0.21334,-1.12 1.22667,-6.373333 1.89334,-9.84 0.66666,-0.666666 1.30666,-0.986666 1.78666,-0.986666 0.66667,0 0.69334,0.666666 0.45334,1.84 l -1.76,8.986666 h 2.05333 l 1.92,-9.866666 c 0.69333,-0.64 1.30667,-0.96 1.76,-0.96 0.42667,0 0.56,0.293333 0.56,0.773333 0,1.546667 -1.68,7.36 -1.68,9.013333 0,1.52 1.17333,1.706667 4.05333,0.506667 z"
         inkscape:connector-curvature="0" /><path
         id="path1131"
         style="font-style:normal;font-variant:normal;font-weight:normal;font-stretch:normal;font-size:26.66666603px;font-family:'OperatorMono Nerd Font';-inkscape-font-specification:'OperatorMono Nerd Font';letter-spacing:3.26999998px"
         d="m 252.64337,90.568469 -0.32,-1.466667 c -6.16,1.573333 -8.24,1.013333 -8.32,-1.92 6.05333,-0.426667 9.30667,-2.32 9.30667,-5.386667 0,-2.053333 -1.46667,-3.333333 -3.89334,-3.333333 -4.58666,0 -8.16,4.666667 -8.16,8.906667 0,4.373333 3.86667,7.013333 11.38667,3.2 z m -3.97333,-9.76 c 1.2,0 1.94666,0.666666 1.94666,1.6 0,1.866666 -2.48,2.88 -6.48,3.2 0.48,-2.453334 2.18667,-4.8 4.53334,-4.8 z"
         inkscape:connector-curvature="0" /><path
         id="path1133"
         style="font-style:normal;font-variant:normal;font-weight:normal;font-stretch:normal;font-size:26.66666603px;font-family:'OperatorMono Nerd Font';-inkscape-font-specification:'OperatorMono Nerd Font';letter-spacing:3.26999998px"
         d="m 271.61419,91.021802 -0.29333,-1.44 c -1.70667,0.586667 -1.97333,0.453333 -1.97333,-0.16 0,-1.36 1.65333,-5.68 1.65333,-8.32 0,-1.413333 -0.58667,-2.613333 -2.37333,-2.613333 -1.6,0 -3.33334,0.96 -5.06667,2.72 0.13333,-1.013334 0.32,-2.24 0.34667,-2.453333 l -2.8,0.16 c -0.56,3.919999 -1.14667,6.906666 -2.37334,13.199999 h 2.8 c 0.16,-0.933333 1.44,-7.146666 1.76,-8.853333 1.38667,-1.36 2.61334,-2.053333 3.52,-2.053333 0.8,0 1.14667,0.48 1.14667,1.333333 0,2 -1.6,6.08 -1.6,8.106667 0,1.973333 1.73333,2.533333 5.25333,0.373333 z"
         inkscape:connector-curvature="0" /><path
         id="path1135"
         style="font-style:normal;font-variant:normal;font-weight:normal;font-stretch:normal;font-size:26.66666603px;font-family:'OperatorMono Nerd Font';-inkscape-font-specification:'OperatorMono Nerd Font';letter-spacing:3.26999998px"
         d="m 288.1317,90.728469 -0.18667,-1.44 c -5.28,1.413333 -6.08,0.64 -5.49333,-1.893334 l 1.38666,-6.266666 h 4.88 l 0.42667,-2.213333 h -4.8 l 0.85333,-3.866667 -2.16,0.16 -2.29333,3.706667 h -1.6 l -0.56,2.213333 h 2.45333 l -1.44,6.426666 c -0.98666,4.426667 1.65334,6.746667 8.53334,3.173334 z"
         inkscape:connector-curvature="0" /></g></g><text
     xml:space="preserve"
     style="font-style:normal;font-variant:normal;font-weight:normal;font-stretch:normal;font-size:40px;line-height:1.25;font-family:'Tw Cen MT Condensed Extra Bold';-inkscape-font-specification:'Tw Cen MT Condensed Extra Bold, ';letter-spacing:0px;word-spacing:0px;fill:#000000;fill-opacity:1;stroke:none"
     x="66.512497"
     y="87.610001"
     id="text1103"><tspan
       sodipodi:role="line"
       id="tspan1101"
       x="66.512497"
       y="87.610001"> </tspan></text>
<text
     xml:space="preserve"
     style="font-style:normal;font-variant:normal;font-weight:normal;font-stretch:normal;font-size:40px;line-height:1.25;font-family:'Tw Cen MT Condensed Extra Bold';-inkscape-font-specification:'Tw Cen MT Condensed Extra Bold, ';letter-spacing:0px;word-spacing:0px;fill:#000000;fill-opacity:1;stroke:none"
     x="179.1925"
     y="87.610001"
     id="text1107"><tspan
       sodipodi:role="line"
       id="tspan1105"
       x="179.1925"
       y="124.13126"></tspan></text>
</svg>