<?xml version="1.0" encoding="utf-8"?>
<!-- Generator: Adobe Illustrator 22.0.1, SVG Export Plug-In . SVG Version: 6.00 Build 0)  -->
<svg version="1.1" id="Layer_1" xmlns="http://www.w3.org/2000/svg" xmlns:xlink="http://www.w3.org/1999/xlink" x="0px" y="0px"
	 viewBox="0 0 128 128" style="enable-background:new 0 0 128 128;" xml:space="preserve">
<style type="text/css">
	.st0{fill:#FFC24A;}
	.st1{fill:#FFA712;}
	.st2{fill:#F4BD62;}
	.st3{fill:#FFA50E;}
	.st4{fill:#F6820C;}
	.st5{fill:#FDE068;}
	.st6{fill:#FCCA3F;}
	.st7{fill:#EEAB37;}
</style>
<path class="st0" d="M18,102.7l0.8-1.1L55,33l0.1-0.7l-16-29.9c-1.3-2.5-5.1-1.9-5.5,0.9L18,102.7z"/>
<path class="st1" d="M18.4,101.9l0.6-1.1l35.8-67.9l-15.9-30c-1.3-2.5-4.6-1.8-5.1,0.9L18.4,101.9z"/>
<path class="st2" d="M66.6,55l11.9-12.2L66.6,20.1c-1.1-2.1-4.2-2.1-5.3,0l-6.3,12.1v1L66.6,55z"/>
<path class="st3" d="M66.4,54.5l11.5-11.8l-11.5-22c-1.1-2.1-3.7-2.3-4.8-0.2l-6.3,12.2L55,33.3L66.4,54.5z"/>
<polygon class="st4" points="18,102.7 18.3,102.3 19.6,101.8 65.9,55.8 66.5,54.2 54.9,32.2 "/>
<path class="st5" d="M68.1,126l41.9-23.4L98,29c-0.4-2.3-3.2-3.2-4.8-1.6L18,102.6l41.6,23.3C62.2,127.4,65.5,127.4,68.1,126"/>
<path class="st6" d="M109.5,102.4L97.7,29.4c-0.4-2.3-2.7-3.2-4.3-1.6l-74.9,74.9l41.1,23c2.6,1.4,5.7,1.4,8.4,0L109.5,102.4z"/>
<path class="st7" d="M68.1,125.3c-2.6,1.5-5.8,1.5-8.5,0l-41.3-22.9l-0.3,0.4l41.6,23.3c2.6,1.5,5.8,1.5,8.5,0l41.9-23.4l-0.1-0.6
	C109.9,102.1,68.1,125.3,68.1,125.3z"/>
</svg>
