<?xml version="1.0" encoding="utf-8"?>
<!-- Generator: Adobe Illustrator 22.0.1, SVG Export Plug-In . SVG Version: 6.00 Build 0)  -->
<svg version="1.1" id="Layer_1" xmlns="http://www.w3.org/2000/svg" xmlns:xlink="http://www.w3.org/1999/xlink" x="0px" y="0px"
	 viewBox="0 0 128 128" style="enable-background:new 0 0 128 128;" xml:space="preserve">
<style type="text/css">
	.st0{fill:#EB7077;stroke:#EB7077;stroke-width:9.375000e-02;}
	.st1{fill:#F6A2AD;stroke:#F6A2AD;stroke-width:9.375000e-02;}
</style>
<path class="st0" d="M31.8,33.4c0.5-0.8,1.1-1.5,1.9-1.9c0.4-0.1,0.7,0,1.1,0h17.4c-0.5,0.4-1,0.9-1.3,1.5c-0.9,1.5-1.5,3.1-2,4.7
	c-1.6,4.9-2.7,10-3.7,15c-0.5,2.3-0.9,4.6-1.4,6.9c-1.3,7.5-2.7,15-4.4,22.4c-0.8,3.4-1.6,6.9-2.9,10.2c-0.6,1.4-1.2,2.8-2.3,3.8
	c-0.3,0.2-0.5,0.5-0.9,0.5H17.8c-1,0-2.1,0.1-3.1,0c0.7-0.5,1.3-1.2,1.7-2c1.2-2.2,1.9-4.6,2.6-6.9c1.1-3.8,1.9-7.7,2.8-11.5
	c0.5-2.5,1.1-5.1,1.5-7.6c0.4-2.8,1-5.7,1.6-8.5c0.8-4.2,1.6-8.3,2.6-12.5c0.8-3.2,1.5-6.4,2.6-9.6C30.4,36.3,31,34.8,31.8,33.4z"/>
<path class="st1" d="M52.2,31.5h1.3c1,0.5,1.8,1.4,2.3,2.4c0.6,1.2,1.1,2.4,1.6,3.7c1.5,4.8,2.6,9.6,3.6,14.5
	c0.9,4.4,1.7,8.7,2.5,13.1c0.1,0.2,0,0.6,0.3,0.6c-1.1,5.8-2.2,11.6-3.6,17.3c-0.8,3.1-1.6,6.2-2.7,9.1c-0.6,1.5-1.2,3.1-2.6,4.2
	c-0.8,0.2-1.4-0.4-1.9-1c-0.9-1.1-1.4-2.4-1.9-3.8c-1.7-4.7-2.8-9.7-3.9-14.6c-0.8-3.8-1.5-7.7-2.3-11.5c-0.3-2-0.8-3.9-1.1-5.8
	l-0.2-0.1c0.4-2.3,0.9-4.6,1.4-6.9c1.1-5.1,2.2-10.1,3.7-15c0.6-1.6,1.2-3.3,2-4.7C51.2,32.3,51.7,31.9,52.2,31.5z"/>
<path class="st0" d="M71.4,34.1c0.6-1.1,1.2-2.2,2.4-2.6h18.3c-0.6,0.6-1.2,1.1-1.6,1.9c-1.2,2.1-1.9,4.5-2.6,6.8
	c-1.8,6.4-3.1,12.9-4.3,19.5c-1.1,6.4-2.3,12.9-3.7,19.3c-0.7,3.2-1.4,6.4-2.4,9.6c-0.6,2-1.2,4-2.2,5.8c-0.5,0.8-1,1.7-1.9,2.2
	H55.9h-1c1.3-1.1,1.9-2.7,2.6-4.2c1.1-3,1.9-6.1,2.7-9.1c1.4-5.7,2.5-11.5,3.6-17.3c1.3-7.5,2.7-14.9,4.5-22.3
	C69.2,40.3,70,37.1,71.4,34.1z"/>
<path class="st1" d="M92.1,31.5h1.5c0.8,0.4,1.4,1.1,1.9,1.8c0.8,1.3,1.4,2.8,1.9,4.3c1.3,3.9,2.2,7.9,3.1,12
	c1.2,5.4,2.2,10.9,3.2,16.3c0.2,1.3,0.5,2.6,0.6,4l0.2,0.2c-0.6,0.8-0.8,1.7-1.1,2.6c-1,3.1-1.6,6.4-2.1,9.6c-0.4,2.5-1,5-1.8,7.5
	c-0.6,1.8-1.3,3.6-2.5,5.1c-0.6,0.7-1.3,1.3-2.1,1.6c-1.3,0.1-2-1.1-2.6-2c-1.3-2.2-2-4.7-2.7-7.1c-2.4-9-4-18.2-5.7-27.4
	c0-0.1-0.1-0.3-0.2-0.3c1.2-6.5,2.5-13.1,4.3-19.5c0.7-2.3,1.4-4.7,2.6-6.8C91,32.6,91.6,32,92.1,31.5z"/>
<path class="st1" d="M0.3,66.4c0.4,0,0.8-0.1,1.2-0.1h16.8c0.7,0.1,1.4,0,2.1,0.3c1,0.4,1.9,1.1,2.5,1.9c0.1,0,0.2-0.2,0.3-0.2
	c-0.4,2.6-1,5.1-1.5,7.6c-0.8,3.9-1.7,7.7-2.8,11.5c-0.7,2.4-1.4,4.8-2.6,6.9c-0.4,0.8-1,1.4-1.7,2c-0.3,0-0.5-0.1-0.7-0.3
	c-0.7-0.5-1.1-1.3-1.6-2c-2.1-4.8-2.3-10.1-3.6-15.1c-0.7-2.5-1.5-5-2.7-7.3c-0.7-1.4-1.6-2.7-2.8-3.8C2.4,67.3,1.4,66.7,0.3,66.4z"
	/>
<path class="st0" d="M105.9,68c1-1.1,2.4-1.8,3.9-1.7h12.6c1.8,0,3.5-0.1,5.3,0c-0.5,0.4-1.2,0.5-1.7,0.8c-1.9,0.9-3.6,2.3-4.6,4.2
	c-1.7,2.9-2.3,6.3-2.8,9.6c-0.5,3.2-0.5,6.6-1.5,9.7c-0.7,2.2-1.8,4.4-3.6,5.9c-5.8,0.1-11.6,0-17.3,0c-0.4,0-0.8,0-1.1-0.1
	c0.8-0.4,1.6-0.9,2.1-1.6c1.2-1.5,1.9-3.3,2.5-5.1c0.8-2.4,1.4-4.9,1.8-7.5c0.5-3.2,1.2-6.4,2.1-9.6c0.3-0.9,0.5-1.8,1.1-2.6
	C105,69.4,105.3,68.6,105.9,68z"/>
</svg>
